<mxfile host="app.diagrams.net" modified="2021-07-20T11:43:18.595Z" agent="5.0 (Windows NT 10.0; WOW64) AppleWebKit/537.36 (KHTML, like Gecko) Chrome/91.0.4472.124 Safari/537.36" etag="Q2OTOrLc9CEaBEEDH-R-" version="14.8.5" type="github">
  <diagram id="WEavagxoX7mWQo-rN5Ej" name="Page-1">
    <mxGraphModel dx="316" dy="516" grid="1" gridSize="10" guides="1" tooltips="1" connect="1" arrows="1" fold="1" page="1" pageScale="1" pageWidth="827" pageHeight="1169" math="0" shadow="0">
      <root>
        <mxCell id="0" />
        <mxCell id="1" parent="0" />
        <mxCell id="sQXhtnSvCD8tMN-nd-RY-7" value="" style="rounded=0;whiteSpace=wrap;html=1;strokeColor=#6c8ebf;fillColor=none;dashed=1;strokeWidth=3;fontSize=19;" parent="1" vertex="1">
          <mxGeometry x="584.5" y="429" width="270" height="150" as="geometry" />
        </mxCell>
        <mxCell id="meVRYA2Hp27yC9P9ZgB7-23" value="&lt;b style=&quot;font-size: 19px;&quot;&gt;API SERVER&lt;/b&gt;" style="rounded=0;whiteSpace=wrap;html=1;fillColor=#f8cecc;strokeColor=#b85450;strokeWidth=3;fontSize=19;" parent="1" vertex="1">
          <mxGeometry x="610" y="330" width="120" height="60" as="geometry" />
        </mxCell>
        <mxCell id="meVRYA2Hp27yC9P9ZgB7-28" value="&lt;b style=&quot;font-size: 19px;&quot;&gt;研发&lt;/b&gt;" style="shape=umlActor;verticalLabelPosition=bottom;verticalAlign=top;html=1;outlineConnect=0;fillColor=#ffe6cc;strokeColor=#d79b00;strokeWidth=3;fontSize=19;" parent="1" vertex="1">
          <mxGeometry x="220" y="330" width="30" height="60" as="geometry" />
        </mxCell>
        <mxCell id="meVRYA2Hp27yC9P9ZgB7-45" value="" style="endArrow=classic;html=1;exitX=1;exitY=0.5;exitDx=0;exitDy=0;strokeWidth=2;fontSize=19;" parent="1" edge="1">
          <mxGeometry width="50" height="50" relative="1" as="geometry">
            <mxPoint x="730" y="359.5" as="sourcePoint" />
            <mxPoint x="840" y="360" as="targetPoint" />
          </mxGeometry>
        </mxCell>
        <mxCell id="sQXhtnSvCD8tMN-nd-RY-9" style="edgeStyle=orthogonalEdgeStyle;rounded=0;orthogonalLoop=1;jettySize=auto;html=1;entryX=1;entryY=0.5;entryDx=0;entryDy=0;strokeWidth=2;endArrow=classic;endFill=1;startArrow=classic;startFill=1;" parent="1" source="meVRYA2Hp27yC9P9ZgB7-50" target="sQXhtnSvCD8tMN-nd-RY-2" edge="1">
          <mxGeometry relative="1" as="geometry">
            <Array as="points">
              <mxPoint x="915" y="515" />
            </Array>
          </mxGeometry>
        </mxCell>
        <mxCell id="meVRYA2Hp27yC9P9ZgB7-50" value="&lt;b style=&quot;font-size: 19px;&quot;&gt;文件存储服务器&lt;/b&gt;" style="shape=cylinder3;whiteSpace=wrap;html=1;boundedLbl=1;backgroundOutline=1;size=15;fillColor=#e1d5e7;strokeColor=#9673a6;strokeWidth=3;fontSize=19;" parent="1" vertex="1">
          <mxGeometry x="840" y="320" width="150" height="80" as="geometry" />
        </mxCell>
        <mxCell id="meVRYA2Hp27yC9P9ZgB7-51" value="&lt;b style=&quot;font-size: 19px;&quot;&gt;MySQL&lt;/b&gt;" style="shape=cylinder3;whiteSpace=wrap;html=1;boundedLbl=1;backgroundOutline=1;size=15;fillColor=#e1d5e7;strokeColor=#9673a6;strokeWidth=3;fontSize=19;" parent="1" vertex="1">
          <mxGeometry x="615" y="180" width="110" height="80" as="geometry" />
        </mxCell>
        <mxCell id="meVRYA2Hp27yC9P9ZgB7-52" value="" style="endArrow=classic;html=1;exitX=0.5;exitY=0;exitDx=0;exitDy=0;entryX=0.5;entryY=1;entryDx=0;entryDy=0;entryPerimeter=0;strokeWidth=2;fontSize=19;" parent="1" source="meVRYA2Hp27yC9P9ZgB7-23" target="meVRYA2Hp27yC9P9ZgB7-51" edge="1">
          <mxGeometry width="50" height="50" relative="1" as="geometry">
            <mxPoint x="890" y="450" as="sourcePoint" />
            <mxPoint x="940" y="400" as="targetPoint" />
          </mxGeometry>
        </mxCell>
        <mxCell id="sQXhtnSvCD8tMN-nd-RY-10" value="" style="edgeStyle=orthogonalEdgeStyle;rounded=0;orthogonalLoop=1;jettySize=auto;html=1;startArrow=classic;startFill=1;endArrow=classic;endFill=1;strokeWidth=2;" parent="1" source="meVRYA2Hp27yC9P9ZgB7-60" target="meVRYA2Hp27yC9P9ZgB7-23" edge="1">
          <mxGeometry relative="1" as="geometry" />
        </mxCell>
        <mxCell id="sQXhtnSvCD8tMN-nd-RY-11" style="edgeStyle=orthogonalEdgeStyle;rounded=0;orthogonalLoop=1;jettySize=auto;html=1;startArrow=classic;startFill=1;endArrow=classic;endFill=1;strokeWidth=2;" parent="1" source="meVRYA2Hp27yC9P9ZgB7-60" edge="1">
          <mxGeometry relative="1" as="geometry">
            <mxPoint x="250" y="360" as="targetPoint" />
          </mxGeometry>
        </mxCell>
        <mxCell id="meVRYA2Hp27yC9P9ZgB7-60" value="&lt;b style=&quot;font-size: 19px&quot;&gt;加解密网关&lt;/b&gt;" style="rounded=0;whiteSpace=wrap;html=1;fillColor=#f8cecc;strokeColor=#b85450;strokeWidth=3;fontSize=19;" parent="1" vertex="1">
          <mxGeometry x="390" y="330" width="120" height="60" as="geometry" />
        </mxCell>
        <mxCell id="meVRYA2Hp27yC9P9ZgB7-61" value="" style="endArrow=classic;startArrow=classic;html=1;exitX=1;exitY=0.5;exitDx=0;exitDy=0;strokeWidth=2;fontSize=19;" parent="1" edge="1">
          <mxGeometry width="50" height="50" relative="1" as="geometry">
            <mxPoint x="510" y="361" as="sourcePoint" />
            <mxPoint x="610" y="359" as="targetPoint" />
          </mxGeometry>
        </mxCell>
        <mxCell id="sQXhtnSvCD8tMN-nd-RY-13" value="加解密" style="edgeLabel;html=1;align=center;verticalAlign=middle;resizable=0;points=[];fontSize=19;fontStyle=1" parent="meVRYA2Hp27yC9P9ZgB7-61" vertex="1" connectable="0">
          <mxGeometry x="-0.3391" y="2" relative="1" as="geometry">
            <mxPoint x="17" y="-18" as="offset" />
          </mxGeometry>
        </mxCell>
        <mxCell id="sQXhtnSvCD8tMN-nd-RY-2" value="" style="rounded=0;whiteSpace=wrap;html=1;strokeColor=#6c8ebf;fillColor=none;strokeWidth=3;fontSize=19;" parent="1" vertex="1">
          <mxGeometry x="597" y="470" width="230" height="90" as="geometry" />
        </mxCell>
        <mxCell id="sQXhtnSvCD8tMN-nd-RY-3" value="&lt;b style=&quot;font-size: 19px;&quot;&gt;Matlab&lt;/b&gt;" style="rounded=1;whiteSpace=wrap;html=1;strokeColor=#6c8ebf;fillColor=#dae8fc;strokeWidth=3;fontSize=19;" parent="1" vertex="1">
          <mxGeometry x="607" y="480" width="90" height="40" as="geometry" />
        </mxCell>
        <mxCell id="sQXhtnSvCD8tMN-nd-RY-4" value="&lt;b style=&quot;font-size: 19px;&quot;&gt;CodeV&lt;/b&gt;" style="rounded=1;whiteSpace=wrap;html=1;strokeColor=#6c8ebf;fillColor=#dae8fc;strokeWidth=3;fontSize=19;" parent="1" vertex="1">
          <mxGeometry x="727" y="480" width="90" height="40" as="geometry" />
        </mxCell>
        <mxCell id="sQXhtnSvCD8tMN-nd-RY-5" value="&lt;b style=&quot;font-size: 19px&quot;&gt;计算节点&lt;/b&gt;" style="text;html=1;strokeColor=none;fillColor=none;align=center;verticalAlign=middle;whiteSpace=wrap;rounded=0;fontSize=19;" parent="1" vertex="1">
          <mxGeometry x="672" y="530" width="95" height="20" as="geometry" />
        </mxCell>
        <mxCell id="sQXhtnSvCD8tMN-nd-RY-6" value="&lt;b style=&quot;font-size: 19px;&quot;&gt;&lt;font style=&quot;font-size: 19px;&quot;&gt;算力集群&lt;/font&gt;&lt;/b&gt;" style="text;html=1;strokeColor=none;fillColor=none;align=center;verticalAlign=middle;whiteSpace=wrap;rounded=0;fontSize=19;" parent="1" vertex="1">
          <mxGeometry x="592" y="440" width="90" height="20" as="geometry" />
        </mxCell>
        <mxCell id="sQXhtnSvCD8tMN-nd-RY-12" value="&lt;font style=&quot;font-size: 19px&quot;&gt;&lt;b&gt;上传/下载数据&lt;/b&gt;&lt;/font&gt;" style="text;html=1;align=center;verticalAlign=middle;resizable=0;points=[];autosize=1;strokeColor=none;" parent="1" vertex="1">
          <mxGeometry x="250" y="330" width="130" height="20" as="geometry" />
        </mxCell>
      </root>
    </mxGraphModel>
  </diagram>
</mxfile>
